# xmcd
#
# Track frame offsets: 
#        150
#        12275
#        25427
#        35180
#        47560
#        61840
#        74045
#        88995
#        102600
#        114535
#        126660
#        141175
#
# Disc length: 2048 seconds
#
# Revision: 3
# Processed by: cddbd v1.5.2PL0 Copyright (c) Steve Scherf et al.
# Submitted via: ExactAudioCopy v1.1
#
DISCID=bc07fe0c
DTITLE=Otis Redding - The Essentials
DYEAR=2002
DGENRE=Blues
TTITLE0=Mr Pitiful
TTITLE1=I've Been Loving You Too Long (To Stop Now)
TTITLE2=Respect
TTITLE3=Satisfaction
TTITLE4=My Lover's Prayer
TTITLE5=Fa-Fa-Fa-Fa-Fa (Sad Song)
TTITLE6=Try A Little Tenderness
TTITLE7=Otis Redding,Carla Thomas - Tramp
TTITLE8=(Sittin' On) The Dock Of The Bay
TTITLE9=The Happy Song (Dum-Dum)
TTITLE10=I've Got Dreams To Remember
TTITLE11=I Can't Turn You Loose
EXTD=
EXTT0=
EXTT1=
EXTT2=
EXTT3=
EXTT4=
EXTT5=
EXTT6=
EXTT7=
EXTT8=
EXTT9=
EXTT10=
EXTT11=
PLAYORDER=
